HIERARCHY
ROOT mixamorig:Hips
{
	OFFSET -0.000000 0.997919 0.000000
	CHANNELS 6 Xposition Yposition Zposition Xrotation Yrotation Zrotation
	JOINT mixamorig:Spine
	{
		OFFSET -0.000000 0.099235 -0.012273
		CHANNELS 3 Xrotation Yrotation Zrotation
		JOINT mixamorig:Spine1
		{
			OFFSET -0.000012 0.116454 -0.014223
			CHANNELS 3 Xrotation Yrotation Zrotation
			JOINT mixamorig:Spine2
			{
				OFFSET -0.000011 0.133602 -0.016265
				CHANNELS 3 Xrotation Yrotation Zrotation
				JOINT mixamorig:Neck
				{
					OFFSET -0.000013 0.150325 0.007929
					CHANNELS 3 Xrotation Yrotation Zrotation
					JOINT mixamorig:Head
					{
						OFFSET -0.000009 0.103218 0.031424
						CHANNELS 3 Xrotation Yrotation Zrotation
						JOINT mixamorig:HeadTop_End
						{
							OFFSET -0.000015 0.184747 0.066364
							CHANNELS 3 Xrotation Yrotation Zrotation
							End Site
							{
								OFFSET -0.000017 0.196305 0.000000
							}
						}
					}
				}
				JOINT mixamorig:LeftShoulder
				{
					OFFSET 0.061050 0.091109 0.007055
					CHANNELS 3 Xrotation Yrotation Zrotation
					JOINT mixamorig:LeftArm
					{
						OFFSET 0.126551 -0.002648 -0.026009
						CHANNELS 3 Xrotation Yrotation Zrotation
						JOINT mixamorig:LeftForeArm
						{
							OFFSET 0.274047 0.000025 -0.000000
							CHANNELS 3 Xrotation Yrotation Zrotation
							JOINT mixamorig:LeftHand
							{
								OFFSET 0.276145 0.000025 0.000000
								CHANNELS 3 Xrotation Yrotation Zrotation
								JOINT mixamorig:LeftHandThumb1
								{
									OFFSET 0.037890 -0.021668 0.030030
									CHANNELS 3 Xrotation Yrotation Zrotation
									JOINT mixamorig:LeftHandThumb2
									{
										OFFSET 0.036756 -0.021217 0.021220
										CHANNELS 3 Xrotation Yrotation Zrotation
										JOINT mixamorig:LeftHandThumb3
										{
											OFFSET 0.033945 -0.019595 0.019597
											CHANNELS 3 Xrotation Yrotation Zrotation
											JOINT mixamorig:LeftHandThumb4
											{
												OFFSET 0.026795 -0.015468 0.015470
												CHANNELS 3 Xrotation Yrotation Zrotation
												End Site
												{
													OFFSET 0.024006 -0.015304 0.019648
												}
											}
										}
									}
								}
								JOINT mixamorig:LeftHandIndex1
								{
									OFFSET 0.122666 -0.002307 0.028220
									CHANNELS 3 Xrotation Yrotation Zrotation
									JOINT mixamorig:LeftHandIndex2
									{
										OFFSET 0.038920 0.000003 0.000000
										CHANNELS 3 Xrotation Yrotation Zrotation
										JOINT mixamorig:LeftHandIndex3
										{
											OFFSET 0.034152 0.000003 -0.000000
											CHANNELS 3 Xrotation Yrotation Zrotation
											JOINT mixamorig:LeftHandIndex4
											{
												OFFSET 0.030780 0.000003 -0.000000
												CHANNELS 3 Xrotation Yrotation Zrotation
												End Site
												{
													OFFSET 0.030780 0.000003 0.000001
												}
											}
										}
									}
								}
								JOINT mixamorig:LeftHandMiddle1
								{
									OFFSET 0.127755 0.000011 0.000000
									CHANNELS 3 Xrotation Yrotation Zrotation
									JOINT mixamorig:LeftHandMiddle2
									{
										OFFSET 0.036140 0.000003 0.000000
										CHANNELS 3 Xrotation Yrotation Zrotation
										JOINT mixamorig:LeftHandMiddle3
										{
											OFFSET 0.034598 0.000003 -0.000000
											CHANNELS 3 Xrotation Yrotation Zrotation
											JOINT mixamorig:LeftHandMiddle4
											{
												OFFSET 0.036802 0.000003 0.000000
												CHANNELS 3 Xrotation Yrotation Zrotation
												End Site
												{
													OFFSET 0.036802 0.000004 -0.000048
												}
											}
										}
									}
								}
								JOINT mixamorig:LeftHandRing1
								{
									OFFSET 0.121470 0.000111 -0.022166
									CHANNELS 3 Xrotation Yrotation Zrotation
									JOINT mixamorig:LeftHandRing2
									{
										OFFSET 0.036012 0.000003 0.000000
										CHANNELS 3 Xrotation Yrotation Zrotation
										JOINT mixamorig:LeftHandRing3
										{
											OFFSET 0.033073 0.000003 -0.000000
											CHANNELS 3 Xrotation Yrotation Zrotation
											JOINT mixamorig:LeftHandRing4
											{
												OFFSET 0.036601 0.000003 0.000000
												CHANNELS 3 Xrotation Yrotation Zrotation
												End Site
												{
													OFFSET 0.036601 0.000002 0.000056
												}
											}
										}
									}
								}
								JOINT mixamorig:LeftHandPinky1
								{
									OFFSET 0.109082 -0.002252 -0.047258
									CHANNELS 3 Xrotation Yrotation Zrotation
									JOINT mixamorig:LeftHandPinky2
									{
										OFFSET 0.041367 0.000004 0.000012
										CHANNELS 3 Xrotation Yrotation Zrotation
										JOINT mixamorig:LeftHandPinky3
										{
											OFFSET 0.025948 0.000002 -0.000012
											CHANNELS 3 Xrotation Yrotation Zrotation
											JOINT mixamorig:LeftHandPinky4
											{
												OFFSET 0.029239 0.000002 0.000000
												CHANNELS 3 Xrotation Yrotation Zrotation
												End Site
												{
													OFFSET 0.029239 0.000003 -0.000033
												}
											}
										}
									}
								}
							}
						}
					}
				}
				JOINT mixamorig:RightShoulder
				{
					OFFSET -0.061065 0.091100 0.007056
					CHANNELS 3 Xrotation Yrotation Zrotation
					JOINT mixamorig:RightArm
					{
						OFFSET -0.126550 -0.002671 -0.026009
						CHANNELS 3 Xrotation Yrotation Zrotation
						JOINT mixamorig:RightForeArm
						{
							OFFSET -0.274047 -0.000024 0.000000
							CHANNELS 3 Xrotation Yrotation Zrotation
							JOINT mixamorig:RightHand
							{
								OFFSET -0.276145 -0.000024 0.000000
								CHANNELS 3 Xrotation Yrotation Zrotation
								JOINT mixamorig:RightHandThumb1
								{
									OFFSET -0.037886 -0.021675 0.030030
									CHANNELS 3 Xrotation Yrotation Zrotation
									JOINT mixamorig:RightHandThumb2
									{
										OFFSET -0.036752 -0.021223 0.021220
										CHANNELS 3 Xrotation Yrotation Zrotation
										JOINT mixamorig:RightHandThumb3
										{
											OFFSET -0.033942 -0.019601 0.019598
											CHANNELS 3 Xrotation Yrotation Zrotation
											JOINT mixamorig:RightHandThumb4
											{
												OFFSET -0.026792 -0.015472 0.015470
												CHANNELS 3 Xrotation Yrotation Zrotation
												End Site
												{
													OFFSET -0.023988 -0.015317 0.019659
												}
											}
										}
									}
								}
								JOINT mixamorig:RightHandIndex1
								{
									OFFSET -0.122666 -0.002329 0.028221
									CHANNELS 3 Xrotation Yrotation Zrotation
									JOINT mixamorig:RightHandIndex2
									{
										OFFSET -0.038920 -0.000003 0.000000
										CHANNELS 3 Xrotation Yrotation Zrotation
										JOINT mixamorig:RightHandIndex3
										{
											OFFSET -0.034152 -0.000003 -0.000000
											CHANNELS 3 Xrotation Yrotation Zrotation
											JOINT mixamorig:RightHandIndex4
											{
												OFFSET -0.030780 -0.000003 0.000000
												CHANNELS 3 Xrotation Yrotation Zrotation
												End Site
												{
													OFFSET -0.030780 0.000002 -0.000085
												}
											}
										}
									}
								}
								JOINT mixamorig:RightHandMiddle1
								{
									OFFSET -0.127755 -0.000011 0.000000
									CHANNELS 3 Xrotation Yrotation Zrotation
									JOINT mixamorig:RightHandMiddle2
									{
										OFFSET -0.036140 -0.000003 0.000000
										CHANNELS 3 Xrotation Yrotation Zrotation
										JOINT mixamorig:RightHandMiddle3
										{
											OFFSET -0.034598 -0.000003 -0.000000
											CHANNELS 3 Xrotation Yrotation Zrotation
											JOINT mixamorig:RightHandMiddle4
											{
												OFFSET -0.036802 -0.000003 0.000000
												CHANNELS 3 Xrotation Yrotation Zrotation
												End Site
												{
													OFFSET -0.036802 -0.000000 0.000126
												}
											}
										}
									}
								}
								JOINT mixamorig:RightHandRing1
								{
									OFFSET -0.121470 0.000089 -0.022166
									CHANNELS 3 Xrotation Yrotation Zrotation
									JOINT mixamorig:RightHandRing2
									{
										OFFSET -0.036012 -0.000003 0.000000
										CHANNELS 3 Xrotation Yrotation Zrotation
										JOINT mixamorig:RightHandRing3
										{
											OFFSET -0.033073 -0.000003 -0.000000
											CHANNELS 3 Xrotation Yrotation Zrotation
											JOINT mixamorig:RightHandRing4
											{
												OFFSET -0.036601 -0.000003 0.000000
												CHANNELS 3 Xrotation Yrotation Zrotation
												End Site
												{
													OFFSET -0.036601 0.000001 0.000022
												}
											}
										}
									}
								}
								JOINT mixamorig:RightHandPinky1
								{
									OFFSET -0.109082 -0.002271 -0.047258
									CHANNELS 3 Xrotation Yrotation Zrotation
									JOINT mixamorig:RightHandPinky2
									{
										OFFSET -0.041366 -0.000004 0.000000
										CHANNELS 3 Xrotation Yrotation Zrotation
										JOINT mixamorig:RightHandPinky3
										{
											OFFSET -0.025948 -0.000002 -0.000000
											CHANNELS 3 Xrotation Yrotation Zrotation
											JOINT mixamorig:RightHandPinky4
											{
												OFFSET -0.029239 -0.000003 0.000000
												CHANNELS 3 Xrotation Yrotation Zrotation
												End Site
												{
													OFFSET -0.029238 0.000003 -0.000129
												}
											}
										}
									}
								}
							}
						}
					}
				}
			}
		}
	}
	JOINT mixamorig:LeftUpLeg
	{
		OFFSET 0.091245 -0.066564 -0.000554
		CHANNELS 3 Xrotation Yrotation Zrotation
		JOINT mixamorig:LeftLeg
		{
			OFFSET 0.002447 -0.405954 -0.005156
			CHANNELS 3 Xrotation Yrotation Zrotation
			JOINT mixamorig:LeftFoot
			{
				OFFSET -0.002447 -0.420479 -0.020592
				CHANNELS 3 Xrotation Yrotation Zrotation
				JOINT mixamorig:LeftToeBase
				{
					OFFSET 0.003735 -0.072085 0.139666
					CHANNELS 3 Xrotation Yrotation Zrotation
					JOINT mixamorig:LeftToe_End
					{
						OFFSET -0.001421 -0.001752 0.099975
						CHANNELS 3 Xrotation Yrotation Zrotation
						End Site
						{
							OFFSET -0.001421 -0.001752 0.099975
						}
					}
				}
			}
		}
	}
	JOINT mixamorig:RightUpLeg
	{
		OFFSET -0.091244 -0.066564 -0.000554
		CHANNELS 3 Xrotation Yrotation Zrotation
		JOINT mixamorig:RightLeg
		{
			OFFSET -0.002447 -0.405955 -0.005143
			CHANNELS 3 Xrotation Yrotation Zrotation
			JOINT mixamorig:RightFoot
			{
				OFFSET 0.002447 -0.420479 -0.020605
				CHANNELS 3 Xrotation Yrotation Zrotation
				JOINT mixamorig:RightToeBase
				{
					OFFSET -0.003735 -0.072085 0.139666
					CHANNELS 3 Xrotation Yrotation Zrotation
					JOINT mixamorig:RightToe_End
					{
						OFFSET 0.001418 -0.001750 0.099975
						CHANNELS 3 Xrotation Yrotation Zrotation
						End Site
						{
							OFFSET 0.001418 -0.001750 0.099975
						}
					}
				}
			}
		}
	}
}
MOTION
Frames: 5
Frame Time: 0.033333
0.117810 0.878807 -0.023591 2.696348 -0.997121 1.617474 12.165001 -5.440956 4.771688 8.647627 -1.652053 3.804951 8.685376 -1.661076 3.714560 -0.934217 2.577191 -1.700548 -28.489679 15.218063 -6.582122 0.000000 0.000001 0.000000 0.829410 -2.662000 -3.097269 -16.515070 -56.522339 -42.621822 -0.010681 -115.396251 -0.016939 34.358187 20.978240 -3.694663 33.554903 13.232629 -1.094342 46.273377 53.326828 -39.138234 10.394285 27.951673 -8.452121 0.000004 0.000002 0.000003 7.843324 6.814592 -98.057290 7.961895 6.796319 -99.064142 2.399126 5.227472 -49.295302 0.000002 -0.000000 -0.000001 7.840843 6.814889 -98.041000 7.964013 6.796503 -99.080438 2.399279 5.227398 -49.295323 -0.000000 0.000001 -0.000002 7.843290 6.814527 -98.057276 7.961682 6.796363 -99.064422 2.398966 5.227563 -49.295302 -0.000001 -0.000000 -0.000004 11.899667 6.246073 -98.008181 7.931897 2.698904 -99.005136 2.399632 5.253579 -49.296026 -0.000002 -0.000003 -0.000004 0.092775 -8.483511 8.503733 -3.525361 33.620879 32.433607 0.007238 124.483859 -0.013737 14.773260 -19.856121 -32.043973 43.155430 3.526728 3.089243 62.921403 -20.724708 19.958617 26.812744 -12.732558 7.143374 -0.000003 0.000003 -0.000003 8.519672 -6.768437 103.092833 8.519222 -6.767995 103.092819 2.610370 -5.432306 51.294096 0.000001 0.000005 -0.000000 8.519189 -6.768535 103.092778 8.519195 -6.768519 103.092908 2.610339 -5.432327 51.294092 0.000003 -0.000000 0.000002 8.519699 -6.768510 103.092833 8.518781 -6.768136 103.092778 2.610007 -5.432473 51.294082 0.000002 0.000000 -0.000002 8.519500 -6.768550 103.092813 8.518315 -6.768387 103.092758 2.610609 -5.433399 51.294157 -0.000002 0.000001 0.000003 -36.042816 0.046935 9.005779 54.986021 -1.876981 4.451644 -21.078939 3.000584 -12.517117 -0.000053 -0.000000 0.000005 -0.000000 -0.000000 0.000000 -34.058052 1.107673 -16.446836 49.778330 9.304616 -9.007572 -19.352072 -2.044070 18.560626 -0.007580 0.000003 -0.000004 -0.000000 -0.000000 -0.000000 
0.106402 0.900447 -0.019662 3.209018 2.390033 2.592742 9.891640 -6.473909 5.383922 7.863541 -1.931830 4.162313 7.908816 -1.957731 4.060135 -0.660638 2.635347 -2.089806 -24.930100 15.487934 -8.078212 -0.000000 0.000000 -0.000000 0.862948 -3.809476 -1.229713 -28.271526 -55.968544 -51.482346 -0.015964 -107.687576 -0.021872 32.255688 18.045052 -1.908582 33.554906 13.232629 -1.094345 46.273377 53.326828 -39.138224 10.394282 27.951677 -8.452118 -0.000001 0.000001 -0.000001 7.843325 6.814593 -98.057290 7.961899 6.796318 -99.064142 2.399128 5.227469 -49.295306 -0.000001 -0.000001 -0.000001 7.840845 6.814889 -98.041000 7.964013 6.796501 -99.080432 2.399279 5.227399 -49.295330 0.000000 0.000001 0.000002 7.843288 6.814529 -98.057276 7.961681 6.796361 -99.064422 2.398965 5.227565 -49.295302 0.000003 -0.000001 -0.000002 11.899665 6.246076 -98.008181 7.931900 2.698902 -99.005136 2.399633 5.253579 -49.296023 -0.000002 -0.000000 0.000002 0.099987 -7.703223 7.567413 -10.996638 32.852926 34.094313 0.008697 119.887141 -0.014979 15.988228 -19.408379 -27.767834 43.155427 3.526729 3.089245 62.921410 -20.724717 19.958620 26.812739 -12.732563 7.143373 -0.000002 0.000000 0.000002 8.519672 -6.768435 103.092833 8.519222 -6.767993 103.092819 2.610371 -5.432308 51.294096 -0.000001 0.000002 0.000002 8.519192 -6.768532 103.092772 8.519194 -6.768519 103.092908 2.610339 -5.432327 51.294092 -0.000001 -0.000000 0.000002 8.519699 -6.768508 103.092840 8.518781 -6.768133 103.092778 2.610004 -5.432473 51.294085 0.000004 -0.000004 -0.000001 8.519498 -6.768548 103.092813 8.518313 -6.768386 103.092758 2.610609 -5.433397 51.294157 -0.000001 -0.000004 0.000001 -33.347774 1.149011 8.389532 47.345444 -5.217094 4.062697 -17.193034 2.454372 -11.724688 -0.073775 0.000001 0.000000 0.000000 -0.000000 0.000000 -31.051355 -1.305512 -18.120451 44.541433 9.151775 -7.933729 -17.430735 -3.076006 17.569753 -0.005122 0.000004 -0.000001 0.000000 0.000000 -0.000000 
0.093232 0.919392 -0.014741 3.383774 5.763060 3.324461 7.609002 -7.193641 5.836514 7.125302 -2.107297 4.322568 7.173898 -2.153312 4.214457 -0.176104 2.528565 -2.316845 -21.160285 14.756636 -9.054384 -0.000000 -0.000000 0.000000 0.881538 -5.010498 0.569304 -39.893291 -54.862811 -60.106218 -0.041178 -97.043280 -0.046643 29.504904 14.191531 0.352119 33.554906 13.232627 -1.094346 46.273377 53.326832 -39.138227 10.394284 27.951673 -8.452122 0.000003 0.000007 0.000006 7.843324 6.814592 -98.057290 7.961898 6.796318 -99.064142 2.399126 5.227474 -49.295309 0.000001 -0.000001 0.000001 7.840845 6.814891 -98.041000 7.964014 6.796500 -99.080438 2.399280 5.227400 -49.295323 0.000000 0.000000 -0.000000 7.843291 6.814525 -98.057276 7.961680 6.796362 -99.064422 2.398967 5.227560 -49.295299 -0.000000 -0.000000 0.000003 11.899668 6.246070 -98.008181 7.931902 2.698903 -99.005129 2.399633 5.253583 -49.296026 0.000000 -0.000000 -0.000001 0.112492 -6.738953 6.326058 -18.930429 32.330595 37.077822 0.011528 113.273298 -0.017512 18.392345 -18.912907 -21.629346 43.155423 3.526730 3.089245 62.921403 -20.724712 19.958620 26.812737 -12.732563 7.143374 0.000001 -0.000003 0.000003 8.519667 -6.768435 103.092833 8.519223 -6.767997 103.092819 2.610368 -5.432307 51.294092 -0.000001 -0.000000 -0.000002 8.519192 -6.768530 103.092772 8.519194 -6.768518 103.092908 2.610341 -5.432325 51.294092 0.000000 -0.000003 -0.000001 8.519696 -6.768509 103.092833 8.518782 -6.768130 103.092772 2.610003 -5.432472 51.294079 0.000000 0.000001 -0.000002 8.519499 -6.768548 103.092813 8.518313 -6.768387 103.092758 2.610607 -5.433396 51.294154 0.000000 0.000000 -0.000001 -30.161784 2.533407 8.402971 39.227361 -8.427982 3.301948 -13.090834 1.249406 -11.370165 -2.006510 -0.000007 -0.000002 -0.000000 -0.000000 0.000000 -27.954670 -3.837975 -19.390864 39.497819 7.686850 -6.604197 -15.736189 -2.902855 16.722311 -0.204228 -0.000002 0.000001 -0.000000 0.000000 -0.000000 
0.078826 0.933595 -0.009558 2.892812 9.075165 4.067833 5.743343 -7.464710 6.084104 6.481296 -2.153743 4.275016 6.528689 -2.216239 4.168846 0.552305 2.250993 -2.311602 -17.489196 13.156601 -9.441538 0.000000 -0.000001 0.000000 0.935046 -6.404051 2.179931 -50.869268 -53.796506 -67.448740 0.045091 -83.564544 0.040299 26.258239 9.590883 2.655280 33.554909 13.232627 -1.094342 46.273381 53.326825 -39.138241 10.394283 27.951677 -8.452122 0.000004 0.000005 -0.000001 7.843326 6.814589 -98.057290 7.961896 6.796318 -99.064142 2.399127 5.227472 -49.295306 0.000001 -0.000000 -0.000001 7.840845 6.814885 -98.041000 7.964010 6.796501 -99.080432 2.399280 5.227401 -49.295323 0.000001 -0.000002 0.000000 7.843291 6.814523 -98.057276 7.961679 6.796362 -99.064429 2.398967 5.227566 -49.295295 0.000003 0.000001 0.000003 11.899670 6.246062 -98.008181 7.931896 2.698903 -99.005136 2.399635 5.253584 -49.296026 0.000003 -0.000001 0.000000 0.134238 -5.605942 4.818813 -27.742734 32.923554 41.220270 0.020786 103.423797 -0.026331 21.448473 -17.646764 -14.805828 43.155427 3.526728 3.089244 62.921403 -20.724710 19.958615 26.812741 -12.732567 7.143379 0.000002 -0.000001 0.000003 8.519667 -6.768435 103.092833 8.519223 -6.767997 103.092826 2.610370 -5.432309 51.294092 0.000001 0.000004 0.000001 8.519186 -6.768531 103.092772 8.519194 -6.768517 103.092908 2.610336 -5.432326 51.294089 -0.000000 0.000001 -0.000004 8.519691 -6.768508 103.092840 8.518781 -6.768127 103.092778 2.610001 -5.432473 51.294082 0.000002 -0.000000 0.000002 8.519497 -6.768548 103.092813 8.518315 -6.768390 103.092758 2.610612 -5.433399 51.294157 0.000000 0.000000 -0.000001 -27.214532 3.894825 8.647197 32.361791 -8.652344 2.287123 -8.667462 -2.715253 -11.318867 -4.757089 -0.000012 0.000001 0.000000 -0.000000 -0.000000 -24.825231 -6.151881 -20.294939 35.759544 6.135321 -5.408204 -14.769272 -2.690002 15.783264 -1.464060 -0.000010 0.000013 -0.000000 -0.000000 -0.000000 
0.064006 0.942381 -0.004514 1.415186 12.169424 5.057770 4.688682 -7.263816 6.162823 5.913161 -2.086142 4.068176 5.955970 -2.153660 3.972536 1.566913 1.843712 -2.080480 -14.083730 10.999142 -9.249370 0.000000 -0.000001 -0.000000 1.058069 -8.016410 3.479314 -61.015890 -53.262761 -73.222804 0.012734 -68.179693 0.008627 22.957623 4.837439 4.321361 33.554906 13.232633 -1.094343 46.273381 53.326828 -39.138227 10.394283 27.951678 -8.452121 0.000004 0.000003 0.000006 7.843325 6.814589 -98.057290 7.961900 6.796318 -99.064142 2.399128 5.227472 -49.295299 -0.000002 0.000001 -0.000001 7.840845 6.814885 -98.041000 7.964014 6.796501 -99.080432 2.399280 5.227399 -49.295323 0.000000 -0.000000 0.000000 7.843291 6.814526 -98.057276 7.961683 6.796362 -99.064429 2.398966 5.227564 -49.295299 0.000000 -0.000000 0.000001 11.899669 6.246068 -98.008181 7.931895 2.698901 -99.005136 2.399632 5.253578 -49.296023 0.000001 -0.000000 0.000001 0.166804 -4.264549 3.123065 -36.549490 34.314881 45.848458 0.217049 91.307150 -0.221930 24.453843 -15.540832 -8.823821 43.155427 3.526727 3.089244 62.921403 -20.724708 19.958619 26.812737 -12.732562 7.143373 0.000001 0.000002 -0.000003 8.519663 -6.768436 103.092826 8.519222 -6.767996 103.092819 2.610369 -5.432310 51.294096 0.000001 0.000003 -0.000001 8.519189 -6.768531 103.092772 8.519192 -6.768516 103.092908 2.610340 -5.432326 51.294089 -0.000000 -0.000004 -0.000003 8.519692 -6.768507 103.092833 8.518781 -6.768130 103.092778 2.610004 -5.432473 51.294082 0.000002 -0.000002 -0.000001 8.519495 -6.768547 103.092813 8.518313 -6.768386 103.092758 2.610610 -5.433395 51.294157 0.000002 -0.000003 -0.000002 -25.550548 4.858490 8.941308 29.224706 -8.813779 1.334225 -2.919615 -5.879882 -11.608298 -7.456675 -0.000024 0.000002 -0.000000 0.000000 -0.000000 -21.783536 -7.982175 -20.745135 34.251073 4.589334 -4.843278 -14.974809 -2.583795 14.444653 -3.681022 -0.000027 0.000027 -0.000000 -0.000000 0.000000 
